<mxfile host="app.diagrams.net" agent="Mozilla/5.0 (Windows NT 10.0; Win64; x64) AppleWebKit/537.36 (KHTML, like Gecko) Chrome/127.0.0.0 Safari/537.36" version="24.7.7">
  <diagram name="Page-1" id="Sdp1yScLoWzOb8cPQdZt">
    <mxGraphModel dx="2269" dy="1406" grid="1" gridSize="10" guides="1" tooltips="1" connect="1" arrows="1" fold="1" page="1" pageScale="1" pageWidth="1100" pageHeight="1700" background="#ffffff" math="0" shadow="0">
      <root>
        <mxCell id="0" />
        <mxCell id="1" parent="0" />
        <mxCell id="bemjHegsYqQRMrJu-x9I-32" value="Exist Module" style="whiteSpace=wrap;strokeWidth=2;verticalAlign=top;fontStyle=0;fontSize=15;fillColor=#f8cecc;strokeColor=#b85450;" parent="1" vertex="1">
          <mxGeometry x="3625.5" y="580" width="171" height="84" as="geometry" />
        </mxCell>
        <mxCell id="bemjHegsYqQRMrJu-x9I-33" value="Exist Module" style="whiteSpace=wrap;strokeWidth=2;fontStyle=1;fontSize=15;fillColor=#f8cecc;strokeColor=#b85450;" parent="1" vertex="1">
          <mxGeometry x="3660.5" y="605" width="101" height="34" as="geometry" />
        </mxCell>
        <mxCell id="bemjHegsYqQRMrJu-x9I-40" value="Payment Sub Module" style="whiteSpace=wrap;strokeWidth=2;verticalAlign=top;fillColor=none;fontSize=15;" parent="1" vertex="1">
          <mxGeometry x="1632" y="573.5" width="742" height="513" as="geometry" />
        </mxCell>
        <mxCell id="bemjHegsYqQRMrJu-x9I-41" value="Payment Module" style="whiteSpace=wrap;strokeWidth=2;fontStyle=1;fontSize=18;fillColor=#f8cecc;strokeColor=#b85450;" parent="1" vertex="1">
          <mxGeometry x="1914" y="599" width="147" height="34" as="geometry" />
        </mxCell>
        <mxCell id="bemjHegsYqQRMrJu-x9I-42" value="Enter your Submodule code (T, P, M)" style="whiteSpace=wrap;strokeWidth=2;fontStyle=1;fontSize=18;fillColor=#f8cecc;strokeColor=#b85450;" parent="1" vertex="1">
          <mxGeometry x="1825" y="726" width="327" height="34" as="geometry" />
        </mxCell>
        <mxCell id="bemjHegsYqQRMrJu-x9I-43" value="Display total amount to be paid" style="whiteSpace=wrap;strokeWidth=2;fontStyle=1;fontSize=18;fillColor=#f8cecc;strokeColor=#b85450;" parent="1" vertex="1">
          <mxGeometry x="1670" y="828" width="289" height="34" as="geometry" />
        </mxCell>
        <mxCell id="nWxjGFCnzDJaX7hS_Yp3-3" style="edgeStyle=orthogonalEdgeStyle;rounded=0;orthogonalLoop=1;jettySize=auto;html=1;exitX=0.5;exitY=1;exitDx=0;exitDy=0;entryX=0.5;entryY=0;entryDx=0;entryDy=0;" edge="1" parent="1" source="bemjHegsYqQRMrJu-x9I-44" target="e7dT7T7Hv7bEaETwIsCn-16">
          <mxGeometry relative="1" as="geometry" />
        </mxCell>
        <mxCell id="bemjHegsYqQRMrJu-x9I-44" value="Make payment" style="whiteSpace=wrap;strokeWidth=2;fontStyle=1;fontSize=18;fillColor=#f8cecc;strokeColor=#b85450;" parent="1" vertex="1">
          <mxGeometry x="1986" y="828" width="140" height="34" as="geometry" />
        </mxCell>
        <mxCell id="bemjHegsYqQRMrJu-x9I-45" value="Return to Main Menu" style="whiteSpace=wrap;strokeWidth=2;fontStyle=1;fontSize=18;fillColor=#f8cecc;strokeColor=#b85450;" parent="1" vertex="1">
          <mxGeometry x="2150" y="826" width="204" height="34" as="geometry" />
        </mxCell>
        <mxCell id="bemjHegsYqQRMrJu-x9I-47" value="Choose E-Commerce Site" style="whiteSpace=wrap;strokeWidth=2;fontStyle=1;fontSize=18;fillColor=#f8cecc;strokeColor=#b85450;" parent="1" vertex="1">
          <mxGeometry x="1000" y="609" width="197" height="45" as="geometry" />
        </mxCell>
        <mxCell id="bemjHegsYqQRMrJu-x9I-48" value="Enter your Submodule code (A, F,)" style="whiteSpace=wrap;strokeWidth=2;fontStyle=1;fontSize=18;fillColor=#f8cecc;strokeColor=#b85450;" parent="1" vertex="1">
          <mxGeometry x="928" y="751" width="339" height="46" as="geometry" />
        </mxCell>
        <mxCell id="bemjHegsYqQRMrJu-x9I-49" value="Amzon" style="whiteSpace=wrap;strokeWidth=2;fontStyle=1;fontSize=18;fillColor=#f8cecc;strokeColor=#b85450;" parent="1" vertex="1">
          <mxGeometry x="787" y="864" width="147" height="34" as="geometry" />
        </mxCell>
        <mxCell id="bemjHegsYqQRMrJu-x9I-51" value="Flipkart" style="whiteSpace=wrap;strokeWidth=2;fontStyle=1;fontSize=18;fillColor=#f8cecc;strokeColor=#b85450;" parent="1" vertex="1">
          <mxGeometry x="1231" y="865" width="162" height="34" as="geometry" />
        </mxCell>
        <mxCell id="bemjHegsYqQRMrJu-x9I-70" value="Stop" style="whiteSpace=wrap;strokeWidth=2;fontStyle=1;fontSize=15;fillColor=#f8cecc;strokeColor=#b85450;" parent="1" vertex="1">
          <mxGeometry x="3687.5" y="732" width="47" height="34" as="geometry" />
        </mxCell>
        <mxCell id="bemjHegsYqQRMrJu-x9I-78" value="" style="curved=1;startArrow=none;endArrow=block;exitX=0.5;exitY=0.98;entryX=0.5;entryY=0;rounded=0;" parent="1" source="bemjHegsYqQRMrJu-x9I-47" target="bemjHegsYqQRMrJu-x9I-48" edge="1">
          <mxGeometry relative="1" as="geometry">
            <Array as="points" />
          </mxGeometry>
        </mxCell>
        <mxCell id="bemjHegsYqQRMrJu-x9I-81" value="F" style="curved=1;startArrow=none;endArrow=block;exitX=0.65;exitY=0.99;entryX=0.31;entryY=0.01;rounded=0;fontStyle=1" parent="1" source="bemjHegsYqQRMrJu-x9I-48" target="bemjHegsYqQRMrJu-x9I-51" edge="1">
          <mxGeometry relative="1" as="geometry">
            <Array as="points" />
          </mxGeometry>
        </mxCell>
        <mxCell id="bemjHegsYqQRMrJu-x9I-99" value="" style="curved=1;startArrow=none;endArrow=block;exitX=0.5;exitY=0.98;entryX=0.5;entryY=0;rounded=0;" parent="1" source="bemjHegsYqQRMrJu-x9I-41" target="bemjHegsYqQRMrJu-x9I-42" edge="1">
          <mxGeometry relative="1" as="geometry">
            <Array as="points" />
          </mxGeometry>
        </mxCell>
        <mxCell id="bemjHegsYqQRMrJu-x9I-100" value="T" style="curved=1;startArrow=none;endArrow=block;exitX=0.31;exitY=0.99;entryX=0.5;entryY=0.01;rounded=0;fontStyle=1" parent="1" source="bemjHegsYqQRMrJu-x9I-42" target="bemjHegsYqQRMrJu-x9I-43" edge="1">
          <mxGeometry relative="1" as="geometry">
            <Array as="points">
              <mxPoint x="1828" y="794" />
            </Array>
          </mxGeometry>
        </mxCell>
        <mxCell id="bemjHegsYqQRMrJu-x9I-101" value="P" style="curved=1;startArrow=none;endArrow=block;exitX=0.59;exitY=0.99;entryX=0.5;entryY=0.01;rounded=0;fontStyle=1" parent="1" source="bemjHegsYqQRMrJu-x9I-42" target="bemjHegsYqQRMrJu-x9I-44" edge="1">
          <mxGeometry relative="1" as="geometry">
            <Array as="points">
              <mxPoint x="2059" y="794" />
            </Array>
          </mxGeometry>
        </mxCell>
        <mxCell id="bemjHegsYqQRMrJu-x9I-102" value="M" style="curved=1;startArrow=none;endArrow=block;exitX=0.72;exitY=0.99;entryX=0.35;entryY=0.01;rounded=0;fontStyle=1" parent="1" source="bemjHegsYqQRMrJu-x9I-42" target="bemjHegsYqQRMrJu-x9I-45" edge="1">
          <mxGeometry relative="1" as="geometry">
            <Array as="points">
              <mxPoint x="2172" y="794" />
            </Array>
          </mxGeometry>
        </mxCell>
        <mxCell id="bemjHegsYqQRMrJu-x9I-107" value="E" style="curved=1;startArrow=none;endArrow=block;exitX=0.5;exitY=0.98;entryX=0.5;entryY=0;rounded=0;fontStyle=1" parent="1" source="bemjHegsYqQRMrJu-x9I-33" target="bemjHegsYqQRMrJu-x9I-70" edge="1">
          <mxGeometry relative="1" as="geometry">
            <Array as="points" />
          </mxGeometry>
        </mxCell>
        <mxCell id="Rv3ZFqCPYbAEEIVOh8et-6" value="Report Module" style="whiteSpace=wrap;strokeWidth=2;fontStyle=1;fontSize=18;fillColor=#f8cecc;strokeColor=#b85450;" parent="1" vertex="1">
          <mxGeometry x="2924.5" y="611" width="143.5" height="34" as="geometry" />
        </mxCell>
        <mxCell id="Rv3ZFqCPYbAEEIVOh8et-7" value="Enter your Submodule code (I, S, M)" style="whiteSpace=wrap;strokeWidth=2;fontStyle=1;fontSize=18;fillColor=#f8cecc;strokeColor=#b85450;" parent="1" vertex="1">
          <mxGeometry x="2827.5" y="695" width="341.5" height="34" as="geometry" />
        </mxCell>
        <mxCell id="Rv3ZFqCPYbAEEIVOh8et-8" value="Display invoice" style="whiteSpace=wrap;strokeWidth=2;fontStyle=1;fontSize=18;fillColor=#f8cecc;strokeColor=#b85450;" parent="1" vertex="1">
          <mxGeometry x="2810" y="797" width="157.5" height="34" as="geometry" />
        </mxCell>
        <mxCell id="Rv3ZFqCPYbAEEIVOh8et-9" value="Display summary" style="whiteSpace=wrap;strokeWidth=2;fontStyle=1;fontSize=18;fillColor=#f8cecc;strokeColor=#b85450;" parent="1" vertex="1">
          <mxGeometry x="2990" y="797" width="180" height="34" as="geometry" />
        </mxCell>
        <mxCell id="Rv3ZFqCPYbAEEIVOh8et-10" value="Return to Main Menu" style="whiteSpace=wrap;strokeWidth=2;fontStyle=1;fontSize=18;fillColor=#f8cecc;strokeColor=#b85450;" parent="1" vertex="1">
          <mxGeometry x="3202.5" y="797" width="197.5" height="34" as="geometry" />
        </mxCell>
        <mxCell id="Rv3ZFqCPYbAEEIVOh8et-11" value="" style="curved=1;startArrow=none;endArrow=block;exitX=0.5;exitY=0.99;entryX=0.5;entryY=-0.01;rounded=0;" parent="1" source="Rv3ZFqCPYbAEEIVOh8et-6" target="Rv3ZFqCPYbAEEIVOh8et-7" edge="1">
          <mxGeometry relative="1" as="geometry">
            <Array as="points" />
          </mxGeometry>
        </mxCell>
        <mxCell id="Rv3ZFqCPYbAEEIVOh8et-12" value="I" style="curved=1;startArrow=none;endArrow=block;exitX=0.39;exitY=0.98;entryX=0.5;entryY=0;rounded=0;fontStyle=1" parent="1" source="Rv3ZFqCPYbAEEIVOh8et-7" target="Rv3ZFqCPYbAEEIVOh8et-8" edge="1">
          <mxGeometry relative="1" as="geometry">
            <Array as="points">
              <mxPoint x="2906.5" y="763" />
            </Array>
          </mxGeometry>
        </mxCell>
        <mxCell id="Rv3ZFqCPYbAEEIVOh8et-13" value="S" style="curved=1;startArrow=none;endArrow=block;exitX=0.61;exitY=0.98;entryX=0.5;entryY=0;rounded=0;fontStyle=1" parent="1" source="Rv3ZFqCPYbAEEIVOh8et-7" target="Rv3ZFqCPYbAEEIVOh8et-9" edge="1">
          <mxGeometry relative="1" as="geometry">
            <Array as="points">
              <mxPoint x="3084.5" y="763" />
            </Array>
          </mxGeometry>
        </mxCell>
        <mxCell id="Rv3ZFqCPYbAEEIVOh8et-14" value="M" style="curved=1;startArrow=none;endArrow=block;exitX=0.85;exitY=0.98;entryX=0.5;entryY=0;rounded=0;fontStyle=1" parent="1" source="Rv3ZFqCPYbAEEIVOh8et-7" target="Rv3ZFqCPYbAEEIVOh8et-10" edge="1">
          <mxGeometry relative="1" as="geometry">
            <Array as="points">
              <mxPoint x="3283.5" y="763" />
            </Array>
          </mxGeometry>
        </mxCell>
        <mxCell id="Rv3ZFqCPYbAEEIVOh8et-62" style="edgeStyle=orthogonalEdgeStyle;rounded=0;orthogonalLoop=1;jettySize=auto;html=1;exitX=0.5;exitY=1;exitDx=0;exitDy=0;" parent="1" source="Rv3ZFqCPYbAEEIVOh8et-17" edge="1">
          <mxGeometry relative="1" as="geometry">
            <mxPoint x="2408" y="384" as="targetPoint" />
          </mxGeometry>
        </mxCell>
        <mxCell id="Rv3ZFqCPYbAEEIVOh8et-17" value="E-COMMERCE Main Menu" style="whiteSpace=wrap;strokeWidth=2;fontSize=20;fontStyle=1;fillColor=#f8cecc;strokeColor=#b85450;" parent="1" vertex="1">
          <mxGeometry x="2248" y="305" width="320" height="29" as="geometry" />
        </mxCell>
        <mxCell id="Rv3ZFqCPYbAEEIVOh8et-18" value="Enter you Sub Module Code(S,P,R,E)" style="whiteSpace=wrap;strokeWidth=2;fontSize=20;fontStyle=1;fillColor=#f8cecc;strokeColor=#b85450;" parent="1" vertex="1">
          <mxGeometry x="2194" y="385" width="430" height="34" as="geometry" />
        </mxCell>
        <mxCell id="Rv3ZFqCPYbAEEIVOh8et-60" style="edgeStyle=orthogonalEdgeStyle;rounded=0;orthogonalLoop=1;jettySize=auto;html=1;exitX=0.5;exitY=1;exitDx=0;exitDy=0;" parent="1" source="Rv3ZFqCPYbAEEIVOh8et-19" edge="1">
          <mxGeometry relative="1" as="geometry">
            <mxPoint x="2403" y="234" as="targetPoint" />
          </mxGeometry>
        </mxCell>
        <mxCell id="Rv3ZFqCPYbAEEIVOh8et-19" value="Start" style="whiteSpace=wrap;strokeWidth=2;fontSize=20;fontStyle=1;fillColor=#f8cecc;strokeColor=#b85450;" parent="1" vertex="1">
          <mxGeometry x="2320" y="146" width="168" height="30" as="geometry" />
        </mxCell>
        <mxCell id="Rv3ZFqCPYbAEEIVOh8et-20" value="Welcome To E-COMMERCE MANAGEMENT SYSTEM" style="whiteSpace=wrap;strokeWidth=2;fontSize=20;fontStyle=1;fillColor=#f8cecc;strokeColor=#b85450;" parent="1" vertex="1">
          <mxGeometry x="2172" y="236" width="515" height="38" as="geometry" />
        </mxCell>
        <mxCell id="Rv3ZFqCPYbAEEIVOh8et-24" value="" style="curved=1;startArrow=none;endArrow=block;rounded=0;" parent="1" edge="1">
          <mxGeometry x="-1" y="-100" relative="1" as="geometry">
            <Array as="points" />
            <mxPoint x="1066.0042372881358" y="797" as="sourcePoint" />
            <mxPoint x="890" y="861" as="targetPoint" />
            <mxPoint x="-60" y="-102" as="offset" />
          </mxGeometry>
        </mxCell>
        <mxCell id="Rv3ZFqCPYbAEEIVOh8et-25" value="A" style="edgeLabel;html=1;align=center;verticalAlign=middle;resizable=0;points=[];fontStyle=1" parent="Rv3ZFqCPYbAEEIVOh8et-24" vertex="1" connectable="0">
          <mxGeometry x="-0.1852" relative="1" as="geometry">
            <mxPoint as="offset" />
          </mxGeometry>
        </mxCell>
        <mxCell id="Rv3ZFqCPYbAEEIVOh8et-39" value="" style="strokeWidth=2;html=1;shape=mxgraph.flowchart.annotation_2;align=left;labelPosition=right;pointerEvents=1;rotation=90;" parent="1" vertex="1">
          <mxGeometry x="2325.32" y="-813.18" width="145" height="2609.37" as="geometry" />
        </mxCell>
        <mxCell id="Rv3ZFqCPYbAEEIVOh8et-43" value="" style="endArrow=classic;html=1;rounded=0;exitX=0.5;exitY=0.691;exitDx=0;exitDy=0;exitPerimeter=0;strokeWidth=2;" parent="1" edge="1">
          <mxGeometry width="50" height="50" relative="1" as="geometry">
            <mxPoint x="1976.4303300000006" y="491.505" as="sourcePoint" />
            <mxPoint x="1978.00152906213" y="574" as="targetPoint" />
          </mxGeometry>
        </mxCell>
        <mxCell id="Rv3ZFqCPYbAEEIVOh8et-56" value="P" style="edgeLabel;html=1;align=center;verticalAlign=middle;resizable=0;points=[];fontStyle=0" parent="Rv3ZFqCPYbAEEIVOh8et-43" vertex="1" connectable="0">
          <mxGeometry x="0.0175" y="-2" relative="1" as="geometry">
            <mxPoint as="offset" />
          </mxGeometry>
        </mxCell>
        <mxCell id="e7dT7T7Hv7bEaETwIsCn-14" value="B" style="edgeLabel;html=1;align=center;verticalAlign=middle;resizable=0;points=[];fontStyle=1" parent="Rv3ZFqCPYbAEEIVOh8et-43" vertex="1" connectable="0">
          <mxGeometry x="-0.0057" y="-1" relative="1" as="geometry">
            <mxPoint as="offset" />
          </mxGeometry>
        </mxCell>
        <mxCell id="Rv3ZFqCPYbAEEIVOh8et-44" value="" style="endArrow=classic;html=1;rounded=0;exitX=0.481;exitY=0.263;exitDx=0;exitDy=0;exitPerimeter=0;strokeWidth=2;" parent="1" edge="1">
          <mxGeometry width="50" height="50" relative="1" as="geometry">
            <mxPoint x="2997.24069" y="488.7499999999998" as="sourcePoint" />
            <mxPoint x="2995" y="574" as="targetPoint" />
          </mxGeometry>
        </mxCell>
        <mxCell id="Rv3ZFqCPYbAEEIVOh8et-57" value="R" style="edgeLabel;html=1;align=center;verticalAlign=middle;resizable=0;points=[];fontStyle=1" parent="Rv3ZFqCPYbAEEIVOh8et-44" vertex="1" connectable="0">
          <mxGeometry x="0.0573" y="2" relative="1" as="geometry">
            <mxPoint as="offset" />
          </mxGeometry>
        </mxCell>
        <mxCell id="Rv3ZFqCPYbAEEIVOh8et-69" style="edgeStyle=orthogonalEdgeStyle;rounded=0;orthogonalLoop=1;jettySize=auto;html=1;" parent="1" edge="1">
          <mxGeometry relative="1" as="geometry">
            <mxPoint x="2407" y="308" as="targetPoint" />
            <mxPoint x="2407" y="274" as="sourcePoint" />
          </mxGeometry>
        </mxCell>
        <mxCell id="Rv3ZFqCPYbAEEIVOh8et-70" value="Report Sub Module" style="whiteSpace=wrap;strokeWidth=2;verticalAlign=top;fillColor=none;fontStyle=0;fontSize=15;" parent="1" vertex="1">
          <mxGeometry x="2520.25" y="573" width="952" height="502" as="geometry" />
        </mxCell>
        <mxCell id="Rv3ZFqCPYbAEEIVOh8et-75" value="&lt;b&gt;&lt;font style=&quot;font-size: 18px;&quot;&gt;Laptops&lt;/font&gt;&lt;/b&gt;" style="rounded=0;whiteSpace=wrap;html=1;fillColor=#f8cecc;strokeColor=#b85450;" parent="1" vertex="1">
          <mxGeometry x="937" y="1150" width="120" height="30" as="geometry" />
        </mxCell>
        <mxCell id="Rv3ZFqCPYbAEEIVOh8et-78" value="L" style="curved=1;startArrow=none;endArrow=block;exitX=0;exitY=0.5;entryX=0.5;entryY=0.01;rounded=0;exitDx=0;exitDy=0;exitPerimeter=0;fontStyle=1" parent="1" edge="1">
          <mxGeometry relative="1" as="geometry">
            <Array as="points">
              <mxPoint x="984" y="1107" />
            </Array>
            <mxPoint x="1099" y="1074.0000000000002" as="sourcePoint" />
            <mxPoint x="984" y="1141" as="targetPoint" />
          </mxGeometry>
        </mxCell>
        <mxCell id="Rv3ZFqCPYbAEEIVOh8et-94" value="&lt;b style=&quot;font-size: 18px;&quot;&gt;&lt;font style=&quot;font-size: 18px;&quot;&gt;1.OrderID&lt;/font&gt;&lt;/b&gt;&lt;div style=&quot;font-size: 18px;&quot;&gt;&lt;b&gt;&lt;font style=&quot;font-size: 18px;&quot;&gt;2.Amount Paid:&lt;/font&gt;&lt;/b&gt;&lt;/div&gt;" style="rounded=0;whiteSpace=wrap;html=1;fillColor=#f8cecc;strokeColor=#b85450;" parent="1" vertex="1">
          <mxGeometry x="2750" y="944" width="186.5" height="60" as="geometry" />
        </mxCell>
        <mxCell id="Rv3ZFqCPYbAEEIVOh8et-96" value="" style="curved=1;startArrow=none;endArrow=block;exitX=0.31;exitY=0.99;entryX=0.34;entryY=-0.063;rounded=0;entryDx=0;entryDy=0;entryPerimeter=0;" parent="1" target="Rv3ZFqCPYbAEEIVOh8et-94" edge="1">
          <mxGeometry relative="1" as="geometry">
            <Array as="points">
              <mxPoint x="2803" y="867" />
            </Array>
            <mxPoint x="2908" y="833" as="sourcePoint" />
            <mxPoint x="2803" y="901" as="targetPoint" />
          </mxGeometry>
        </mxCell>
        <mxCell id="nWxjGFCnzDJaX7hS_Yp3-6" value="&lt;b&gt;I&lt;/b&gt;" style="edgeLabel;html=1;align=center;verticalAlign=middle;resizable=0;points=[];" vertex="1" connectable="0" parent="Rv3ZFqCPYbAEEIVOh8et-96">
          <mxGeometry x="-0.15" y="10" relative="1" as="geometry">
            <mxPoint as="offset" />
          </mxGeometry>
        </mxCell>
        <mxCell id="Rv3ZFqCPYbAEEIVOh8et-99" value="&lt;b style=&quot;&quot;&gt;&lt;font style=&quot;font-size: 40px;&quot;&gt;E-COMMERCE MANAGEMENT SYSTEM&lt;/font&gt;&lt;/b&gt;" style="text;html=1;align=center;verticalAlign=middle;resizable=0;points=[];autosize=1;strokeColor=none;fillColor=none;" parent="1" vertex="1">
          <mxGeometry x="2040" y="70" width="780" height="60" as="geometry" />
        </mxCell>
        <mxCell id="PcKsBc9rMCbqgGmzDIWR-1" value="" style="curved=1;startArrow=none;endArrow=block;exitX=0.5;exitY=0.99;entryX=0.449;entryY=0.007;rounded=0;entryDx=0;entryDy=0;entryPerimeter=0;strokeWidth=2;fontStyle=0" parent="1" edge="1">
          <mxGeometry relative="1" as="geometry">
            <Array as="points" />
            <mxPoint x="3702.71" y="500" as="sourcePoint" />
            <mxPoint x="3702.92" y="578" as="targetPoint" />
          </mxGeometry>
        </mxCell>
        <mxCell id="PcKsBc9rMCbqgGmzDIWR-2" value="E" style="edgeLabel;html=1;align=center;verticalAlign=middle;resizable=0;points=[];" parent="PcKsBc9rMCbqgGmzDIWR-1" vertex="1" connectable="0">
          <mxGeometry x="-0.108" relative="1" as="geometry">
            <mxPoint as="offset" />
          </mxGeometry>
        </mxCell>
        <mxCell id="PcKsBc9rMCbqgGmzDIWR-4" value="&lt;b&gt;S&lt;/b&gt;" style="endArrow=classic;html=1;rounded=0;strokeWidth=2;" parent="1" edge="1">
          <mxGeometry width="50" height="50" relative="1" as="geometry">
            <mxPoint x="1094" y="500" as="sourcePoint" />
            <mxPoint x="1094.00152906213" y="582" as="targetPoint" />
          </mxGeometry>
        </mxCell>
        <mxCell id="UDQO_BuGxYxwtC6EL5wh-3" value="&lt;b&gt;&lt;font style=&quot;font-size: 18px;&quot;&gt;Mobiles&lt;/font&gt;&lt;/b&gt;" style="rounded=0;whiteSpace=wrap;html=1;fillColor=#f8cecc;strokeColor=#b85450;" parent="1" vertex="1">
          <mxGeometry x="1191" y="1150.5" width="120" height="30" as="geometry" />
        </mxCell>
        <mxCell id="UDQO_BuGxYxwtC6EL5wh-5" value="M" style="curved=1;startArrow=none;endArrow=block;entryX=0.5;entryY=0.01;rounded=0;exitX=0;exitY=0.5;exitDx=0;exitDy=0;exitPerimeter=0;fontStyle=1" parent="1" edge="1">
          <mxGeometry relative="1" as="geometry">
            <Array as="points">
              <mxPoint x="1242" y="1116" />
            </Array>
            <mxPoint x="1099" y="1074.0000000000002" as="sourcePoint" />
            <mxPoint x="1242" y="1150" as="targetPoint" />
          </mxGeometry>
        </mxCell>
        <mxCell id="UDQO_BuGxYxwtC6EL5wh-10" value="" style="strokeWidth=2;html=1;shape=mxgraph.flowchart.annotation_2;align=left;labelPosition=right;pointerEvents=1;rotation=-90;" parent="1" vertex="1">
          <mxGeometry x="1087" y="654" width="50" height="540" as="geometry" />
        </mxCell>
        <mxCell id="UDQO_BuGxYxwtC6EL5wh-14" style="edgeStyle=orthogonalEdgeStyle;rounded=0;orthogonalLoop=1;jettySize=auto;html=1;exitX=1;exitY=0.5;exitDx=0;exitDy=0;exitPerimeter=0;entryX=0.536;entryY=0.497;entryDx=0;entryDy=0;entryPerimeter=0;" parent="1" edge="1">
          <mxGeometry relative="1" as="geometry">
            <mxPoint x="1111.3799999999999" y="957.1999999999998" as="targetPoint" />
            <mxPoint x="1113" y="934" as="sourcePoint" />
          </mxGeometry>
        </mxCell>
        <mxCell id="UDQO_BuGxYxwtC6EL5wh-16" value="E-Commerce Site&#39;s Sub Module" style="whiteSpace=wrap;strokeWidth=2;verticalAlign=top;fillColor=none;fontSize=15;" parent="1" vertex="1">
          <mxGeometry x="749" y="580" width="740" height="999.5" as="geometry" />
        </mxCell>
        <mxCell id="UDQO_BuGxYxwtC6EL5wh-20" style="edgeStyle=orthogonalEdgeStyle;rounded=0;orthogonalLoop=1;jettySize=auto;html=1;exitX=0.5;exitY=1;exitDx=0;exitDy=0;exitPerimeter=0;entryX=0.415;entryY=-0.021;entryDx=0;entryDy=0;entryPerimeter=0;fontStyle=1" parent="1" source="UDQO_BuGxYxwtC6EL5wh-19" target="UDQO_BuGxYxwtC6EL5wh-24" edge="1">
          <mxGeometry relative="1" as="geometry">
            <mxPoint x="1139" y="1505" as="targetPoint" />
          </mxGeometry>
        </mxCell>
        <mxCell id="UDQO_BuGxYxwtC6EL5wh-21" value="&lt;b&gt;Yes&lt;/b&gt;" style="edgeLabel;html=1;align=center;verticalAlign=middle;resizable=0;points=[];" parent="UDQO_BuGxYxwtC6EL5wh-20" vertex="1" connectable="0">
          <mxGeometry x="-0.0284" y="-6" relative="1" as="geometry">
            <mxPoint as="offset" />
          </mxGeometry>
        </mxCell>
        <mxCell id="UDQO_BuGxYxwtC6EL5wh-19" value="&lt;b&gt;&lt;font style=&quot;font-size: 18px;&quot;&gt;Product==laptop&lt;/font&gt;&lt;/b&gt;" style="strokeWidth=2;html=1;shape=mxgraph.flowchart.decision;whiteSpace=wrap;fillColor=#f8cecc;strokeColor=#b85450;" parent="1" vertex="1">
          <mxGeometry x="1029" y="1319" width="180" height="153" as="geometry" />
        </mxCell>
        <mxCell id="UDQO_BuGxYxwtC6EL5wh-24" value="&lt;font size=&quot;1&quot; style=&quot;&quot;&gt;&lt;b style=&quot;font-size: 18px;&quot;&gt;10% Discount on Product(laptop)&lt;/b&gt;&lt;/font&gt;" style="rounded=0;whiteSpace=wrap;html=1;fillColor=#f8cecc;strokeColor=#b85450;" parent="1" vertex="1">
          <mxGeometry x="1049" y="1505" width="173" height="60" as="geometry" />
        </mxCell>
        <mxCell id="UDQO_BuGxYxwtC6EL5wh-25" value="&lt;font size=&quot;1&quot; style=&quot;&quot;&gt;&lt;b style=&quot;font-size: 18px;&quot;&gt;20% Discount on Product(Mobile)&lt;/b&gt;&lt;/font&gt;" style="rounded=0;whiteSpace=wrap;html=1;fillColor=#f8cecc;strokeColor=#b85450;" parent="1" vertex="1">
          <mxGeometry x="1260" y="1359" width="161" height="60" as="geometry" />
        </mxCell>
        <mxCell id="UDQO_BuGxYxwtC6EL5wh-26" value="" style="strokeWidth=2;html=1;shape=mxgraph.flowchart.annotation_2;align=left;labelPosition=right;pointerEvents=1;rotation=-90;" parent="1" vertex="1">
          <mxGeometry x="1050" y="1086" width="130" height="322" as="geometry" />
        </mxCell>
        <mxCell id="UDQO_BuGxYxwtC6EL5wh-28" value="" style="curved=1;startArrow=none;endArrow=block;entryX=0.5;entryY=0;rounded=0;strokeWidth=2;" parent="1" edge="1">
          <mxGeometry relative="1" as="geometry">
            <Array as="points" />
            <mxPoint x="1115.5" y="1251" as="sourcePoint" />
            <mxPoint x="1116.5" y="1320" as="targetPoint" />
          </mxGeometry>
        </mxCell>
        <mxCell id="e7dT7T7Hv7bEaETwIsCn-2" style="edgeStyle=orthogonalEdgeStyle;rounded=0;orthogonalLoop=1;jettySize=auto;html=1;entryX=-0.009;entryY=0.615;entryDx=0;entryDy=0;entryPerimeter=0;exitX=1;exitY=0.5;exitDx=0;exitDy=0;exitPerimeter=0;" parent="1" source="UDQO_BuGxYxwtC6EL5wh-19" target="UDQO_BuGxYxwtC6EL5wh-25" edge="1">
          <mxGeometry relative="1" as="geometry">
            <mxPoint x="1231" y="1396.4615384615386" as="sourcePoint" />
          </mxGeometry>
        </mxCell>
        <mxCell id="e7dT7T7Hv7bEaETwIsCn-3" value="No" style="edgeLabel;html=1;align=center;verticalAlign=middle;resizable=0;points=[];fontStyle=1" parent="e7dT7T7Hv7bEaETwIsCn-2" vertex="1" connectable="0">
          <mxGeometry x="-0.1931" relative="1" as="geometry">
            <mxPoint as="offset" />
          </mxGeometry>
        </mxCell>
        <mxCell id="e7dT7T7Hv7bEaETwIsCn-4" value="&lt;font style=&quot;font-size: 18px;&quot;&gt;&lt;b&gt;UPI&lt;/b&gt;&lt;/font&gt;" style="rounded=0;whiteSpace=wrap;html=1;fillColor=#f8cecc;strokeColor=#b85450;" parent="1" vertex="1">
          <mxGeometry x="1849" y="986" width="120" height="60" as="geometry" />
        </mxCell>
        <mxCell id="e7dT7T7Hv7bEaETwIsCn-5" value="&lt;font style=&quot;font-size: 18px;&quot;&gt;&lt;b&gt;CREDIT CARD&lt;/b&gt;&lt;/font&gt;" style="rounded=0;whiteSpace=wrap;html=1;fillColor=#f8cecc;strokeColor=#b85450;" parent="1" vertex="1">
          <mxGeometry x="2003" y="985" width="143" height="60" as="geometry" />
        </mxCell>
        <mxCell id="e7dT7T7Hv7bEaETwIsCn-6" value="&lt;font style=&quot;font-size: 18px;&quot;&gt;&lt;b&gt;DEBIT CARD&lt;/b&gt;&lt;/font&gt;" style="rounded=0;whiteSpace=wrap;html=1;fillColor=#f8cecc;strokeColor=#b85450;" parent="1" vertex="1">
          <mxGeometry x="2173" y="985" width="120" height="60" as="geometry" />
        </mxCell>
        <mxCell id="e7dT7T7Hv7bEaETwIsCn-7" value="UPI" style="curved=1;startArrow=none;endArrow=block;exitX=0.31;exitY=0.99;entryX=0.667;entryY=0;rounded=0;entryDx=0;entryDy=0;entryPerimeter=0;fontStyle=1" parent="1" edge="1">
          <mxGeometry relative="1" as="geometry">
            <Array as="points">
              <mxPoint x="1952" y="940" />
            </Array>
            <mxPoint x="2049" y="906" as="sourcePoint" />
            <mxPoint x="1926.04" y="985" as="targetPoint" />
          </mxGeometry>
        </mxCell>
        <mxCell id="e7dT7T7Hv7bEaETwIsCn-8" value="CREDIT CARD" style="curved=1;startArrow=none;endArrow=block;rounded=0;entryX=0.624;entryY=-0.053;entryDx=0;entryDy=0;entryPerimeter=0;fontStyle=1" parent="1" target="e7dT7T7Hv7bEaETwIsCn-5" edge="1">
          <mxGeometry relative="1" as="geometry">
            <Array as="points">
              <mxPoint x="2096" y="939" />
            </Array>
            <mxPoint x="2056" y="905" as="sourcePoint" />
            <mxPoint x="2093" y="975" as="targetPoint" />
          </mxGeometry>
        </mxCell>
        <mxCell id="e7dT7T7Hv7bEaETwIsCn-9" value="DEBIT CARD" style="curved=1;startArrow=none;endArrow=block;exitX=0.72;exitY=0.99;entryX=0.421;entryY=-0.065;rounded=0;entryDx=0;entryDy=0;entryPerimeter=0;fontStyle=1" parent="1" target="e7dT7T7Hv7bEaETwIsCn-6" edge="1">
          <mxGeometry x="0.2773" y="5" relative="1" as="geometry">
            <Array as="points">
              <mxPoint x="2176" y="940" />
            </Array>
            <mxPoint x="2066" y="906" as="sourcePoint" />
            <mxPoint x="2225" y="972" as="targetPoint" />
            <mxPoint as="offset" />
          </mxGeometry>
        </mxCell>
        <mxCell id="e7dT7T7Hv7bEaETwIsCn-11" value="Choose A Category" style="whiteSpace=wrap;strokeWidth=2;fontStyle=1;fontSize=18;fillColor=#f8cecc;strokeColor=#b85450;" parent="1" vertex="1">
          <mxGeometry x="941" y="958" width="339" height="46" as="geometry" />
        </mxCell>
        <mxCell id="e7dT7T7Hv7bEaETwIsCn-12" style="edgeStyle=orthogonalEdgeStyle;rounded=0;orthogonalLoop=1;jettySize=auto;html=1;exitX=1;exitY=0.5;exitDx=0;exitDy=0;exitPerimeter=0;" parent="1" edge="1">
          <mxGeometry relative="1" as="geometry">
            <mxPoint x="1110" y="1075" as="targetPoint" />
            <mxPoint x="1110.31" y="1005" as="sourcePoint" />
          </mxGeometry>
        </mxCell>
        <mxCell id="e7dT7T7Hv7bEaETwIsCn-16" value="Choose Payment Mode" style="whiteSpace=wrap;strokeWidth=2;fontStyle=1;fontSize=18;fillColor=#f8cecc;strokeColor=#b85450;" parent="1" vertex="1">
          <mxGeometry x="1950" y="884" width="210" height="20" as="geometry" />
        </mxCell>
        <mxCell id="nWxjGFCnzDJaX7hS_Yp3-4" value="&lt;b style=&quot;font-size: 18px;&quot;&gt;&lt;font style=&quot;font-size: 18px;&quot;&gt;1.Selected Product&lt;/font&gt;&lt;/b&gt;&lt;div style=&quot;font-size: 18px;&quot;&gt;&lt;b&gt;&lt;font style=&quot;font-size: 18px;&quot;&gt;2.Selected Product Item Cost&lt;/font&gt;&lt;/b&gt;&lt;/div&gt;&lt;div style=&quot;font-size: 18px;&quot;&gt;&lt;b&gt;&lt;font style=&quot;font-size: 18px;&quot;&gt;3.Amout to be Paid for the Selected Product&lt;/font&gt;&lt;/b&gt;&lt;/div&gt;" style="rounded=0;whiteSpace=wrap;html=1;fillColor=#f8cecc;strokeColor=#b85450;" vertex="1" parent="1">
          <mxGeometry x="3006" y="937.5" width="394" height="73" as="geometry" />
        </mxCell>
        <mxCell id="nWxjGFCnzDJaX7hS_Yp3-5" value="" style="curved=1;startArrow=none;endArrow=block;exitX=0.61;exitY=0.98;rounded=0;fontStyle=1" edge="1" parent="1">
          <mxGeometry relative="1" as="geometry">
            <Array as="points">
              <mxPoint x="3127.5" y="865" />
            </Array>
            <mxPoint x="3080" y="831" as="sourcePoint" />
            <mxPoint x="3150" y="934" as="targetPoint" />
          </mxGeometry>
        </mxCell>
        <mxCell id="nWxjGFCnzDJaX7hS_Yp3-7" value="&lt;b&gt;S&lt;/b&gt;" style="edgeLabel;html=1;align=center;verticalAlign=middle;resizable=0;points=[];" vertex="1" connectable="0" parent="nWxjGFCnzDJaX7hS_Yp3-5">
          <mxGeometry x="-0.0501" y="-11" relative="1" as="geometry">
            <mxPoint as="offset" />
          </mxGeometry>
        </mxCell>
      </root>
    </mxGraphModel>
  </diagram>
</mxfile>
